<?xml version="1.0"?>
<!-- Created by MetaPost 2.10 on 2024.11.24:2247 -->
<svg version="1.1" xmlns="http://www.w3.org/2000/svg" xmlns:xlink="http://www.w3.org/1999/xlink" width="2037.354965" height="518.056030" viewBox="0 0 2037.354965 518.056030">
<!-- Original BoundingBox: -84.682236 -19.925232 1952.672729 498.130798 -->
  <path d="M49.813080 79.700928L49.813080 119.551392L219.177551 119.551392L518.056030 119.551392L348.691559 79.700928L0.000000 478.205566L0.000000 518.056030L169.364471 518.056030L518.056030 119.551392L552.925186 79.700928L348.691559 79.700928Z" style="fill: rgb(0.000000%,0.000000%,0.000000%);stroke: none;"></path>
  <path d="M0.000000 478.205566L0.000000 518.056030L169.364471 518.056030L552.925186 518.056030L552.925186 478.205566L383.560715 478.205566Z" style="fill: rgb(0.000000%,0.000000%,0.000000%);stroke: none;"></path>
  <path d="M792.027969 79.700928L622.663498 79.700928L622.663498 119.551392L622.663498 518.056030L792.027969 518.056030L792.027969 478.205566Z" style="fill: rgb(0.000000%,0.000000%,0.000000%);stroke: none;"></path>
  <path d="M622.663498 39.850464L792.027969 39.850464L792.027969 -0.000000L622.663498 -0.000000L622.663498 39.850464Z" style="fill: rgb(0.000000%,0.000000%,0.000000%);stroke: none;"></path>
  <path d="M1031.130753 79.700928L861.766281 79.700928L861.766281 119.551392L861.766281 518.056030L1031.130753 518.056030L1031.130753 478.205566Z" style="fill: rgb(0.000000%,0.000000%,0.000000%);stroke: none;"></path>
  <path d="M1031.130753 99.626160C1169.067093 75.304565,1414.691467 64.206161,1414.691467 179.327087L1414.691467 518.056030L1245.326996 518.056030L1245.326996 179.327087C1245.326996 95.205734,1130.755341 121.910339,1031.130753 139.476624Z" style="fill: rgb(0.000000%,0.000000%,0.000000%);stroke: none;"></path>
  <path d="M1484.429779 478.205566L1484.429779 518.056030L1653.794250 518.056030L2037.354965 219.177551L2037.354965 219.177551L2037.354965 179.327087C2037.354965 99.917831,1937.890503 79.700928,1845.574615 79.700928L1676.210144 79.700928L1676.210144 79.700928C1583.894257 79.700928,1484.429779 99.917831,1484.429779 179.327087L1484.429779 219.177551L1484.429779 219.177551L1484.429779 418.429871C1484.429779 497.839127,1583.894257 518.056030,1676.210144 518.056030L1845.574615 518.056030L1845.574615 518.056030C1937.890503 518.056030,2037.354965 497.839127,2037.354965 418.429871L2037.354965 378.579407L2037.354965 378.579407L1867.990494 378.579407C1867.990494 457.988663,1768.526031 478.205566,1676.210144 478.205566L1845.574615 478.205566C1753.258728 478.205566,1653.794250 457.988663,1653.794250 378.579407L1653.794250 179.327087L1653.794250 219.177551C1653.794250 139.768295,1753.258728 119.551392,1845.574615 119.551392L1676.210144 119.551392C1768.526031 119.551392,1867.990494 139.768295,1867.990494 219.177551L1867.990494 179.327087Z" style="fill: rgb(0.000000%,0.000000%,0.000000%);stroke: none;"></path>
</svg>
