<?xml version="1.0"?>
<!-- Created by MetaPost 2.10 on 2024.11.24:1552 -->
<svg version="1.1" xmlns="http://www.w3.org/2000/svg" xmlns:xlink="http://www.w3.org/1999/xlink" width="2545.106934" height="853.966110" viewBox="0 0 2545.106934 853.966110">
<!-- Original BoundingBox: -84.682236 -19.925232 2460.424698 834.040878 -->
  <path d="M49.813080 415.611008L49.813080 455.461472L219.177551 455.461472L567.869110 455.461472L398.504639 415.611008L0.000000 814.115646L0.000000 853.966110L169.364471 853.966110L567.869110 455.461472L607.719574 415.611008L398.504639 415.611008Z" style="fill: rgb(0.000000%,0.000000%,0.000000%);stroke: none;"></path>
  <path d="M0.000000 814.115646L0.000000 853.966110L169.364471 853.966110L607.719574 853.966110L607.719574 814.115646L438.355103 814.115646Z" style="fill: rgb(0.000000%,0.000000%,0.000000%);stroke: none;"></path>
  <path d="M677.457886 375.760544L846.822357 375.760544L846.822357 335.910080L677.457886 335.910080L677.457886 375.760544Z" style="fill: rgb(0.000000%,0.000000%,0.000000%);stroke: none;"></path>
  <path d="M846.822357 415.611008L677.457886 415.611008L677.457886 455.461472L677.457886 853.966110L846.822357 853.966110L846.822357 814.115646Z" style="fill: rgb(0.000000%,0.000000%,0.000000%);stroke: none;"></path>
  <path d="M1085.925140 415.611008L916.560669 415.611008L916.560669 455.461472L916.560669 853.966110L1085.925140 853.966110L1085.925140 814.115646Z" style="fill: rgb(0.000000%,0.000000%,0.000000%);stroke: none;"></path>
  <path d="M916.560669 455.461472L916.560669 495.311935L1085.925140 495.311935C1149.060715 469.005447,1216.780579 455.461472,1285.177460 455.461472L1285.177460 455.461472L1115.812988 455.461472C1184.209854 455.461472,1251.929733 469.005447,1315.065308 495.311935L1315.065308 853.966110L1484.429779 853.966110L1484.429779 814.115646L1484.429779 455.461472C1421.294205 429.154984,1353.574326 415.611008,1285.177460 415.611008L1115.812988 415.611008L1115.812988 415.611008C1047.416107 415.611008,979.696243 429.154984,916.560669 455.461472Z" style="fill: rgb(0.000000%,0.000000%,0.000000%);stroke: none;"></path>
  <path d="M2145.742645 565.583405C1972.175644 565.583405,1890.939575 545.399246,1890.939575 480.768845L1890.939575 203.864563C1890.939575 89.833466,2039.862747 89.601913,2198.544510 89.601913L2506.149445 89.601913C2506.149445 131.334137,2506.149445 212.196579,2506.149445 293.279037L2329.218658 115.944473L2329.218658 54.682724C2329.218658 34.175293,2287.772400 0.500000,2229.258362 0.500000L2170.744324 0.500000C2112.230301 0.500000,2170.744324 0.500000,2170.744324 77.697189L2544.606934 445.339386C2544.606934 485.714432,2359.759552 487.243866,2186.192566 487.243866Z" style="fill: rgb(0.000000%,0.000000%,0.000000%);stroke: none;"></path>
  <path d="M2145.742645 565.583405C1972.175644 565.583405,1890.939575 545.399246,1890.939575 480.768845L1890.939575 203.864563C1890.939575 89.833466,2039.862747 89.601913,2198.544510 89.601913L2506.149445 89.601913C2506.149445 131.334137,2506.149445 212.196579,2506.149445 293.279037L2329.218658 115.944473L2329.218658 54.682724C2329.218658 34.175293,2287.772400 0.500000,2229.258362 0.500000L2170.744324 0.500000C2112.230301 0.500000,2170.744324 0.500000,2170.744324 77.697189L2544.606934 445.339386C2544.606934 485.714432,2359.759552 487.243866,2186.192566 487.243866Z" style="stroke:rgb(0.000000%,0.000000%,0.000000%); stroke-width: 1.000000;stroke-linecap: round;stroke-miterlimit: 10.000000;fill: none;"></path>
</svg>
