<?xml version="1.0"?>
<!-- Created by MetaPost 2.10 on 2024.11.25:0706 -->
<svg version="1.1" xmlns="http://www.w3.org/2000/svg" xmlns:xlink="http://www.w3.org/1999/xlink" width="2037.354965" height="518.056030" viewBox="0 0 2037.354965 518.056030">
<!-- Original BoundingBox: -84.682236 -19.925232 1952.672729 498.130798 -->
  <path d="M49.813080 79.700928L49.813080 119.551392L219.177551 119.551392L518.056030 119.551392L348.691559 79.700928L0.000000 478.205566L0.000000 518.056030L169.364471 518.056030L518.056030 119.551392L552.925186 79.700928L348.691559 79.700928Z" style="fill: rgb(0.000000%,0.000000%,0.000000%);stroke: none;"></path>
  <path d="M0.000000 478.205566L0.000000 518.056030L169.364471 518.056030L552.925186 518.056030L552.925186 478.205566L383.560715 478.205566Z" style="fill: rgb(0.000000%,0.000000%,0.000000%);stroke: none;"></path>
  <path d="M792.027969 79.700928L622.663498 79.700928L622.663498 119.551392L622.663498 518.056030L792.027969 518.056030L792.027969 478.205566Z" style="fill: rgb(0.000000%,0.000000%,0.000000%);stroke: none;"></path>
  <path d="M622.663498 39.850464L792.027969 39.850464L792.027969 -0.000000L622.663498 -0.000000L622.663498 39.850464Z" style="fill: rgb(0.000000%,0.000000%,0.000000%);stroke: none;"></path>
  <path d="M1031.130753 79.700928L861.766281 79.700928L861.766281 119.551392L861.766281 518.056030L1031.130753 518.056030L1031.130753 478.205566Z" style="fill: rgb(0.000000%,0.000000%,0.000000%);stroke: none;"></path>
  <path d="M1031.130753 99.626160C1180.562515 73.277634,1414.691467 54.612152,1414.691467 179.327087L1414.691467 518.056030L1245.326996 518.056030L1245.326996 179.327087C1245.326996 95.205734,1130.755341 121.910339,1031.130753 139.476624Z" style="fill: rgb(0.000000%,0.000000%,0.000000%);stroke: none;"></path>
  <path d="M2037.354965 169.364471C2037.354965 98.973862,1949.736069 79.700928,1867.990494 79.700928L1653.794250 79.700928C1570.750565 79.700928,1484.429779 107.107224,1484.429779 179.327087L1484.429779 418.429871C1484.429779 490.649734,1570.750565 518.056030,1653.794250 518.056030L1867.990494 518.056030C1951.034180 518.056030,2037.354965 490.649734,2037.354965 418.429871L2037.354965 248.130798L1867.990494 423.130798L1867.990494 428.392487C1867.990494 464.502426,1824.830093 478.205566,1783.308258 478.205566L1738.476486 478.205566C1696.954651 478.205566,1653.794250 464.502426,1653.794250 428.392487L1653.794250 169.364471C1653.794250 133.254532,1696.954651 119.551392,1738.476486 119.551392L1783.308258 119.551392C1833.341599 119.551392,1899.131149 113.317276,1867.990494 144.457932L1569.112015 498.130798L1738.476486 498.130798Z" style="fill: rgb(0.000000%,0.000000%,0.000000%);stroke: none;"></path>
</svg>
