<?xml version="1.0"?>
<!-- Created by MetaPost 2.10 on 2024.11.24:1328 -->
<svg version="1.1" xmlns="http://www.w3.org/2000/svg" xmlns:xlink="http://www.w3.org/1999/xlink" width="2540.125626" height="853.966110" viewBox="0 0 2540.125626 853.966110">
<!-- Original BoundingBox: -79.700928 -19.925232 2460.424698 834.040878 -->
  <path d="M49.813080 415.611008L49.813080 455.461472L209.214935 455.461472L557.906494 455.461472L398.504639 415.611008L0.000000 814.115646L0.000000 853.966110L159.401855 853.966110L557.906494 853.966110L557.906494 814.115646L398.504639 814.115646L0.000000 814.115646L159.401855 853.966110L557.906494 455.461472L557.906494 415.611008L398.504639 415.611008Z" style="fill: rgb(0.000000%,0.000000%,0.000000%);stroke: none;"></path>
  <path d="M632.626114 375.760544L792.027969 375.760544L792.027969 335.910080L632.626114 335.910080L632.626114 375.760544Z" style="fill: rgb(0.000000%,0.000000%,0.000000%);stroke: none;"></path>
  <path d="M792.027969 415.611008L632.626114 415.611008L632.626114 455.461472L632.626114 853.966110L792.027969 853.966110L792.027969 814.115646Z" style="fill: rgb(0.000000%,0.000000%,0.000000%);stroke: none;"></path>
  <path d="M1026.149445 415.611008L866.747589 415.611008L866.747589 455.461472L866.747589 853.966110L1026.149445 853.966110L1026.149445 814.115646L1026.149445 455.461472L1026.149445 495.311935C1089.285019 469.005447,1157.004883 455.461472,1225.401764 455.461472L1225.401764 455.461472L1065.999908 455.461472C1134.396774 455.461472,1202.116653 469.005447,1265.252228 495.311935L1265.252228 853.966110L1424.654083 853.966110L1424.654083 814.115646L1424.654083 455.461472C1361.518509 429.154984,1293.798630 415.611008,1225.401764 415.611008L1065.999908 415.611008L1065.999908 415.611008C997.603027 415.611008,929.883163 429.154984,866.747589 455.461472L866.747589 495.311935L866.747589 853.966110L1026.149445 853.966110L1026.149445 814.115646Z" style="fill: rgb(0.000000%,0.000000%,0.000000%);stroke: none;"></path>
  <path d="M2140.761337 565.583405C1967.194336 565.583405,1885.958267 545.399246,1885.958267 480.768845L1885.958267 203.864563C1885.958267 89.833466,2034.881439 89.601913,2193.563202 89.601913L2501.168137 89.601913C2501.168137 131.334137,2501.168137 212.196579,2501.168137 293.279037L2324.237350 115.944473L2324.237350 54.682724C2324.237350 34.175293,2282.791092 0.500000,2224.277054 0.500000L2165.763016 0.500000C2107.248993 0.500000,2165.763016 0.500000,2165.763016 77.697189L2539.625626 445.339386C2539.625626 485.714432,2354.778244 487.243866,2181.211258 487.243866Z" style="fill: rgb(0.000000%,0.000000%,0.000000%);stroke: none;"></path>
  <path d="M2140.761337 565.583405C1967.194336 565.583405,1885.958267 545.399246,1885.958267 480.768845L1885.958267 203.864563C1885.958267 89.833466,2034.881439 89.601913,2193.563202 89.601913L2501.168137 89.601913C2501.168137 131.334137,2501.168137 212.196579,2501.168137 293.279037L2324.237350 115.944473L2324.237350 54.682724C2324.237350 34.175293,2282.791092 0.500000,2224.277054 0.500000L2165.763016 0.500000C2107.248993 0.500000,2165.763016 0.500000,2165.763016 77.697189L2539.625626 445.339386C2539.625626 485.714432,2354.778244 487.243866,2181.211258 487.243866Z" style="stroke:rgb(0.000000%,0.000000%,0.000000%); stroke-width: 1.000000;stroke-linecap: round;stroke-linejoin: round;stroke-miterlimit: 10.000000;fill: none;"></path>
</svg>
