<?xml version="1.0"?>
<!-- Created by MetaPost 2.10 on 2024.11.24:1603 -->
<svg version="1.1" xmlns="http://www.w3.org/2000/svg" xmlns:xlink="http://www.w3.org/1999/xlink" width="2545.106934" height="853.966110" viewBox="0 0 2545.106934 853.966110">
<!-- Original BoundingBox: -84.682236 -19.925232 2460.424698 834.040878 -->
  <path d="M49.813080 415.611008L49.813080 455.461472L219.177551 455.461472L567.869110 455.461472L398.504639 415.611008L0.000000 814.115646L0.000000 853.966110L169.364471 853.966110L567.869110 455.461472L607.719574 415.611008L398.504639 415.611008Z" style="fill: rgb(0.000000%,0.000000%,0.000000%);stroke: none;"></path>
  <path d="M0.000000 814.115646L0.000000 853.966110L169.364471 853.966110L607.719574 853.966110L607.719574 814.115646L438.355103 814.115646Z" style="fill: rgb(0.000000%,0.000000%,0.000000%);stroke: none;"></path>
  <path d="M677.457886 375.760544L846.822357 375.760544L846.822357 335.910080L677.457886 335.910080L677.457886 375.760544Z" style="fill: rgb(0.000000%,0.000000%,0.000000%);stroke: none;"></path>
  <path d="M846.822357 415.611008L677.457886 415.611008L677.457886 455.461472L677.457886 853.966110L846.822357 853.966110L846.822357 814.115646Z" style="fill: rgb(0.000000%,0.000000%,0.000000%);stroke: none;"></path>
  <path d="M1085.925140 415.611008L916.560669 415.611008L916.560669 455.461472L916.560669 853.966110L1085.925140 853.966110L1085.925140 814.115646Z" style="fill: rgb(0.000000%,0.000000%,0.000000%);stroke: none;"></path>
  <path d="M916.560669 475.386703L916.560669 515.237167L1085.925140 515.237167C1180.076752 480.968399,1302.160675 447.663025,1393.571106 447.663010L1224.206635 447.663010C1300.145767 447.663010,1354.915771 470.648529,1354.915771 535.162399L1354.915771 853.966110L1524.280243 853.966110L1524.280243 814.115646L1524.280243 495.311935C1524.280243 430.798065,1469.510239 407.812546,1393.571106 407.812546L1224.206635 407.812546C1132.796204 407.812561,1010.712280 441.117935,916.560669 475.386703Z" style="fill: rgb(0.000000%,0.000000%,0.000000%);stroke: none;"></path>
  <path d="M2145.742645 565.583405C1972.175644 565.583405,1890.939575 545.399246,1890.939575 480.768845L1890.939575 203.864563C1890.939575 89.833466,2039.862747 89.601913,2198.544510 89.601913L2506.149445 89.601913C2506.149445 131.334137,2506.149445 212.196579,2506.149445 293.279037L2329.218658 115.944473L2329.218658 54.682724C2329.218658 34.175293,2287.772400 0.500000,2229.258362 0.500000L2170.744324 0.500000C2112.230301 0.500000,2170.744324 0.500000,2170.744324 77.697189L2544.606934 445.339386C2544.606934 485.714432,2359.759552 487.243866,2186.192566 487.243866Z" style="fill: rgb(0.000000%,0.000000%,0.000000%);stroke: none;"></path>
  <path d="M2145.742645 565.583405C1972.175644 565.583405,1890.939575 545.399246,1890.939575 480.768845L1890.939575 203.864563C1890.939575 89.833466,2039.862747 89.601913,2198.544510 89.601913L2506.149445 89.601913C2506.149445 131.334137,2506.149445 212.196579,2506.149445 293.279037L2329.218658 115.944473L2329.218658 54.682724C2329.218658 34.175293,2287.772400 0.500000,2229.258362 0.500000L2170.744324 0.500000C2112.230301 0.500000,2170.744324 0.500000,2170.744324 77.697189L2544.606934 445.339386C2544.606934 485.714432,2359.759552 487.243866,2186.192566 487.243866Z" style="stroke:rgb(0.000000%,0.000000%,0.000000%); stroke-width: 1.000000;stroke-linecap: round;stroke-miterlimit: 10.000000;fill: none;"></path>
</svg>
