<?xml version="1.0"?>
<!-- Created by MetaPost 2.10 on 2024.11.24:1546 -->
<svg version="1.1" xmlns="http://www.w3.org/2000/svg" xmlns:xlink="http://www.w3.org/1999/xlink" width="2545.106934" height="853.966110" viewBox="0 0 2545.106934 853.966110">
<!-- Original BoundingBox: -84.682236 -19.925232 2460.424698 834.040878 -->
  <path d="M49.813080 415.611008L49.813080 455.461472L219.177551 455.461472L567.869110 455.461472L398.504639 415.611008L0.000000 814.115646L0.000000 853.966110L169.364471 853.966110L567.869110 455.461472L607.719574 415.611008L398.504639 415.611008Z" style="fill: rgb(0.000000%,0.000000%,0.000000%);stroke: none;"></path>
  <path d="M0.000000 814.115646L0.000000 853.966110L169.364471 853.966110L607.719574 853.966110L607.719574 814.115646L438.355103 814.115646Z" style="fill: rgb(0.000000%,0.000000%,0.000000%);stroke: none;"></path>
  <path d="M642.588730 375.760544L811.953201 375.760544L811.953201 335.910080L642.588730 335.910080L642.588730 375.760544Z" style="fill: rgb(0.000000%,0.000000%,0.000000%);stroke: none;"></path>
  <path d="M811.953201 415.611008L642.588730 415.611008L642.588730 455.461472L642.588730 853.966110L811.953201 853.966110L811.953201 814.115646Z" style="fill: rgb(0.000000%,0.000000%,0.000000%);stroke: none;"></path>
  <path d="M1056.037292 415.611008L886.672821 415.611008L886.672821 455.461472L886.672821 853.966110L1056.037292 853.966110L1056.037292 814.115646Z" style="fill: rgb(0.000000%,0.000000%,0.000000%);stroke: none;"></path>
  <path d="M886.672821 455.461472L886.672821 495.311935L1056.037292 495.311935C1119.172867 469.005447,1186.892731 455.461472,1255.289612 455.461472L1255.289612 455.461472L1085.925140 455.461472C1154.322006 455.461472,1222.041885 469.005447,1285.177460 495.311935L1285.177460 853.966110L1454.541931 853.966110L1454.541931 814.115646L1454.541931 455.461472C1391.406357 429.154984,1323.686478 415.611008,1255.289612 415.611008L1085.925140 415.611008L1085.925140 415.611008C1017.528259 415.611008,949.808395 429.154984,886.672821 455.461472Z" style="fill: rgb(0.000000%,0.000000%,0.000000%);stroke: none;"></path>
  <path d="M2145.742645 565.583405C1972.175644 565.583405,1890.939575 545.399246,1890.939575 480.768845L1890.939575 203.864563C1890.939575 89.833466,2039.862747 89.601913,2198.544510 89.601913L2506.149445 89.601913C2506.149445 131.334137,2506.149445 212.196579,2506.149445 293.279037L2329.218658 115.944473L2329.218658 54.682724C2329.218658 34.175293,2287.772400 0.500000,2229.258362 0.500000L2170.744324 0.500000C2112.230301 0.500000,2170.744324 0.500000,2170.744324 77.697189L2544.606934 445.339386C2544.606934 485.714432,2359.759552 487.243866,2186.192566 487.243866Z" style="fill: rgb(0.000000%,0.000000%,0.000000%);stroke: none;"></path>
  <path d="M2145.742645 565.583405C1972.175644 565.583405,1890.939575 545.399246,1890.939575 480.768845L1890.939575 203.864563C1890.939575 89.833466,2039.862747 89.601913,2198.544510 89.601913L2506.149445 89.601913C2506.149445 131.334137,2506.149445 212.196579,2506.149445 293.279037L2329.218658 115.944473L2329.218658 54.682724C2329.218658 34.175293,2287.772400 0.500000,2229.258362 0.500000L2170.744324 0.500000C2112.230301 0.500000,2170.744324 0.500000,2170.744324 77.697189L2544.606934 445.339386C2544.606934 485.714432,2359.759552 487.243866,2186.192566 487.243866Z" style="stroke:rgb(0.000000%,0.000000%,0.000000%); stroke-width: 1.000000;stroke-linecap: round;stroke-miterlimit: 10.000000;fill: none;"></path>
</svg>
