<?xml version="1.0"?>
<!-- Created by MetaPost 2.10 on 2024.11.24:1320 -->
<svg version="1.1" xmlns="http://www.w3.org/2000/svg" xmlns:xlink="http://www.w3.org/1999/xlink" width="2550.088242" height="853.966110" viewBox="0 0 2550.088242 853.966110">
<!-- Original BoundingBox: -89.663544 -19.925232 2460.424698 834.040878 -->
  <path d="M49.813080 415.611008L49.813080 455.461472L229.140167 455.461472L577.831726 455.461472L398.504639 415.611008L0.000000 814.115646L0.000000 853.966110L179.327087 853.966110L577.831726 853.966110L577.831726 814.115646L398.504639 814.115646L0.000000 814.115646L179.327087 853.966110L577.831726 455.461472L577.831726 415.611008L398.504639 415.611008Z" style="fill: rgb(0.000000%,0.000000%,0.000000%);stroke: none;"></path>
  <path d="M652.551346 375.760544L831.878433 375.760544L831.878433 335.910080L652.551346 335.910080L652.551346 375.760544Z" style="fill: rgb(0.000000%,0.000000%,0.000000%);stroke: none;"></path>
  <path d="M831.878433 415.611008L652.551346 415.611008L652.551346 455.461472L652.551346 853.966110L831.878433 853.966110L831.878433 814.115646Z" style="fill: rgb(0.000000%,0.000000%,0.000000%);stroke: none;"></path>
  <path d="M1085.925140 415.611008L906.598053 415.611008L906.598053 455.461472L906.598053 853.966110L1085.925140 853.966110L1085.925140 814.115646L1085.925140 455.461472L1085.925140 495.311935C1149.060715 469.005447,1216.780579 455.461472,1285.177460 455.461472L1285.177460 455.461472L1105.850372 455.461472C1174.247238 455.461472,1241.967117 469.005447,1305.102692 495.311935L1305.102692 853.966110L1484.429779 853.966110L1484.429779 814.115646L1484.429779 455.461472C1421.294205 429.154984,1353.574326 415.611008,1285.177460 415.611008L1105.850372 415.611008L1105.850372 415.611008C1037.453491 415.611008,969.733627 429.154984,906.598053 455.461472L906.598053 495.311935L906.598053 853.966110L1085.925140 853.966110L1085.925140 814.115646Z" style="fill: rgb(0.000000%,0.000000%,0.000000%);stroke: none;"></path>
  <path d="M2150.723953 565.583405C1977.156952 565.583405,1895.920883 545.399246,1895.920883 480.768845L1895.920883 203.864563C1895.920883 89.833466,2044.844055 89.601913,2203.525818 89.601913L2511.130753 89.601913C2511.130753 131.334137,2511.130753 212.196579,2511.130753 293.279037L2334.199966 115.944473L2334.199966 54.682724C2334.199966 34.175293,2292.753708 0.500000,2234.239670 0.500000L2175.725632 0.500000C2117.211609 0.500000,2175.725632 0.500000,2175.725632 77.697189L2549.588242 445.339386C2549.588242 485.714432,2364.740860 487.243866,2191.173874 487.243866Z" style="fill: rgb(0.000000%,0.000000%,0.000000%);stroke: none;"></path>
  <path d="M2150.723953 565.583405C1977.156952 565.583405,1895.920883 545.399246,1895.920883 480.768845L1895.920883 203.864563C1895.920883 89.833466,2044.844055 89.601913,2203.525818 89.601913L2511.130753 89.601913C2511.130753 131.334137,2511.130753 212.196579,2511.130753 293.279037L2334.199966 115.944473L2334.199966 54.682724C2334.199966 34.175293,2292.753708 0.500000,2234.239670 0.500000L2175.725632 0.500000C2117.211609 0.500000,2175.725632 0.500000,2175.725632 77.697189L2549.588242 445.339386C2549.588242 485.714432,2364.740860 487.243866,2191.173874 487.243866Z" style="stroke:rgb(0.000000%,0.000000%,0.000000%); stroke-width: 1.000000;stroke-linecap: round;stroke-linejoin: round;stroke-miterlimit: 10.000000;fill: none;"></path>
</svg>
