<?xml version="1.0"?>
<!-- Created by MetaPost 2.10 on 2024.11.24:1240 -->
<svg version="1.1" xmlns="http://www.w3.org/2000/svg" xmlns:xlink="http://www.w3.org/1999/xlink" width="2460.424698" height="834.040878" viewBox="0 0 2460.424698 834.040878">
<!-- Original BoundingBox: 167.296616 156.110458 2460.424698 834.040878 -->
  <path d="M197.684464 564.053986L197.684464 521.329498L560.870193 521.329498L167.796616 131.075867L167.796616 89.833466L774.584015 89.833466L774.584015 131.075867L349.575989 131.075867L782.554108 564.053986Z" style="fill: rgb(0.000000%,0.000000%,0.000000%);stroke: none;"></path>
  <path d="M197.684464 564.053986L197.684464 521.329498L560.870193 521.329498L167.796616 131.075867L167.796616 89.833466L774.584015 89.833466L774.584015 131.075867L349.575989 131.075867L782.554108 564.053986Z" style="stroke:rgb(0.000000%,0.000000%,0.000000%); stroke-width: 1.000000;stroke-linecap: round;stroke-linejoin: round;stroke-miterlimit: 10.000000;fill: none;"></path>
  <path d="M861.716614 564.552109L861.716614 89.833466L1043.518875 89.335327L1043.518875 564.053986Z" style="fill: rgb(0.000000%,0.000000%,0.000000%);stroke: none;"></path>
  <path d="M861.716614 564.552109L861.716614 89.833466L1043.518875 89.335327L1043.518875 564.053986Z" style="stroke:rgb(0.000000%,0.000000%,0.000000%); stroke-width: 1.000000;stroke-linecap: round;stroke-linejoin: round;stroke-miterlimit: 10.000000;fill: none;"></path>
  <path d="M2061.060410 565.583405C1887.493408 565.583405,1806.257339 545.399246,1806.257339 480.768845L1806.257339 203.864563C1806.257339 89.833466,1955.180511 89.601913,2113.862274 89.601913L2421.467209 89.601913C2421.467209 131.334137,2421.467209 212.196579,2421.467209 293.279037L2244.536423 115.944473L2244.536423 54.682724C2244.536423 34.175293,2203.090164 0.500000,2144.576126 0.500000L2086.062088 0.500000C2027.548065 0.500000,2086.062088 0.500000,2086.062088 77.697189L2459.924698 445.339386C2459.924698 485.714432,2275.077316 487.243866,2101.510330 487.243866Z" style="fill: rgb(0.000000%,0.000000%,0.000000%);stroke: none;"></path>
  <path d="M2061.060410 565.583405C1887.493408 565.583405,1806.257339 545.399246,1806.257339 480.768845L1806.257339 203.864563C1806.257339 89.833466,1955.180511 89.601913,2113.862274 89.601913L2421.467209 89.601913C2421.467209 131.334137,2421.467209 212.196579,2421.467209 293.279037L2244.536423 115.944473L2244.536423 54.682724C2244.536423 34.175293,2203.090164 0.500000,2144.576126 0.500000L2086.062088 0.500000C2027.548065 0.500000,2086.062088 0.500000,2086.062088 77.697189L2459.924698 445.339386C2459.924698 485.714432,2275.077316 487.243866,2101.510330 487.243866Z" style="stroke:rgb(0.000000%,0.000000%,0.000000%); stroke-width: 1.000000;stroke-linecap: round;stroke-linejoin: round;stroke-miterlimit: 10.000000;fill: none;"></path>
  <path d="M1515.789200 565.052200C1467.596649 566.135468,1303.779068 540.169006,1303.779068 540.169006L1303.779068 564.053986L1121.976852 564.552109L1121.976852 89.833466L1303.779068 89.335327L1303.779068 491.500061L1303.779068 491.500061L1415.921646 510.459183L1537.030594 510.459183C1576.097794 510.459183,1658.139633 510.459183,1658.139633 445.970703L1658.139633 89.833466L1839.941849 89.335327L1839.941849 495.784775C1839.941849 561.331940,1683.329224 563.806961,1627.931793 565.052200Z" style="fill: rgb(0.000000%,0.000000%,0.000000%);stroke: none;"></path>
  <path d="M1515.789200 565.052200C1467.596649 566.135468,1303.779068 540.169006,1303.779068 540.169006L1303.779068 564.053986L1121.976852 564.552109L1121.976852 89.833466L1303.779068 89.335327L1303.779068 491.500061L1303.779068 491.500061L1415.921646 510.459183L1537.030594 510.459183C1576.097794 510.459183,1658.139633 510.459183,1658.139633 445.970703L1658.139633 89.833466L1839.941849 89.335327L1839.941849 495.784775C1839.941849 561.331940,1683.329224 563.806961,1627.931793 565.052200Z" style="stroke:rgb(0.000000%,0.000000%,0.000000%); stroke-width: 1.000000;stroke-linecap: round;stroke-linejoin: round;stroke-miterlimit: 10.000000;fill: none;"></path>
  <path d="M861.218506 608.629654L1044.016998 608.629654L1044.016998 677.430420L861.218506 677.430420Z" style="fill: rgb(0.000000%,0.000000%,0.000000%);stroke: none;"></path>
  <path d="M861.218506 608.629654L1044.016998 608.629654L1044.016998 677.430420L861.218506 677.430420Z" style="stroke:rgb(0.000000%,0.000000%,0.000000%); stroke-width: 1.000000;stroke-linecap: round;stroke-linejoin: round;stroke-miterlimit: 10.000000;fill: none;"></path>
</svg>
