<?xml version="1.0"?>
<!-- Created by MetaPost 2.10 on 2024.11.24:2233 -->
<svg version="1.1" xmlns="http://www.w3.org/2000/svg" xmlns:xlink="http://www.w3.org/1999/xlink" width="1414.691467" height="518.056030" viewBox="0 0 1414.691467 518.056030">
<!-- Original BoundingBox: -84.682236 -19.925232 1330.009232 498.130798 -->
  <path d="M49.813080 79.700928L49.813080 119.551392L219.177551 119.551392L518.056030 119.551392L348.691559 79.700928L0.000000 478.205566L0.000000 518.056030L169.364471 518.056030L518.056030 119.551392L552.925186 79.700928L348.691559 79.700928Z" style="fill: rgb(0.000000%,0.000000%,0.000000%);stroke: none;"></path>
  <path d="M0.000000 478.205566L0.000000 518.056030L169.364471 518.056030L552.925186 518.056030L552.925186 478.205566L383.560715 478.205566Z" style="fill: rgb(0.000000%,0.000000%,0.000000%);stroke: none;"></path>
  <path d="M792.027969 79.700928L622.663498 79.700928L622.663498 119.551392L622.663498 518.056030L792.027969 518.056030L792.027969 478.205566Z" style="fill: rgb(0.000000%,0.000000%,0.000000%);stroke: none;"></path>
  <path d="M622.663498 39.850464L792.027969 39.850464L792.027969 -0.000000L622.663498 -0.000000L622.663498 39.850464Z" style="fill: rgb(0.000000%,0.000000%,0.000000%);stroke: none;"></path>
  <path d="M1031.130753 79.700928L861.766281 79.700928L861.766281 119.551392L861.766281 518.056030L1031.130753 518.056030L1031.130753 478.205566Z" style="fill: rgb(0.000000%,0.000000%,0.000000%);stroke: none;"></path>
  <path d="M1031.130753 99.626160C1169.067093 75.304565,1414.691467 64.206161,1414.691467 179.327087L1414.691467 518.056030L1245.326996 518.056030L1245.326996 179.327087C1245.326996 95.205734,1130.755341 121.910339,1031.130753 139.476624Z" style="fill: rgb(0.000000%,0.000000%,0.000000%);stroke: none;"></path>
</svg>
